<svg xmlns="http://www.w3.org/2000/svg" width="448" height="246" viewBox="0 0 448 246">
  <g fill="none" fill-rule="evenodd">
    <rect width="64" height="32" x="64" fill="#D8D8D8"/>
    <rect width="64" height="32" x="128" fill="#C52727"/>
    <rect width="64" height="32" fill="#C52727"/>
    <rect width="64" height="32" x="192" fill="#D8D8D8"/>
    <rect width="64" height="32" x="256" fill="#C52727"/>
    <rect width="64" height="32" x="320" fill="#D8D8D8"/>
    <polygon fill="#D8D8D8" points="448 64 448 128 416 128 416 64"/>
    <rect width="64" height="32" x="384" fill="#C52727"/>
    <polygon fill="#C52727" points="448 0 448 64 416 64 416 0"/>
    <polygon fill="#C52727" points="448 128 448 192 416 192 416 128"/>
    <polygon fill="#FFF" fill-rule="nonzero" points="0 165.966 64.748 88.949 2.345 88.949 2.345 64 98.836 64 98.836 88.949 35.35 165.966 101 165.966 101 192 0 192"/>
    <path fill="#FFF" fill-rule="nonzero" d="M308.284839,64 C318.524809,64 328.252634,65.144998 337.468606,67.4350282 C346.684579,69.7250585 354.725846,73.4312362 361.592649,78.5536723 C368.459452,83.6761085 373.910649,90.3351756 377.946401,98.5310734 C381.982154,106.726971 384,116.670375 384,128.361582 C384,138.726982 382.042388,147.856834 378.127106,155.751412 C374.211823,163.645991 368.94133,170.274926 362.315467,175.638418 C355.689604,181.00191 348.03986,185.069666 339.366003,187.841808 C330.692147,190.61395 321.596781,192 312.079632,192 L266,192 L266,64 L308.284839,64 Z M310.814701,90.0338983 L294.189893,90.0338983 L294.189893,165.966102 L308.826953,165.966102 C315.332345,165.966102 321.385883,165.303208 326.987749,163.977401 C332.589615,162.651594 337.438469,160.451993 341.534456,157.378531 C345.630444,154.305069 348.852974,150.267445 351.202144,145.265537 C353.551313,140.263628 354.725881,134.146929 354.725881,126.915254 C354.725881,120.647803 353.551313,115.193997 351.202144,110.553672 C348.852974,105.913348 345.690678,102.086644 341.715161,99.0734463 C337.739643,96.0602486 333.071492,93.8003766 327.710567,92.2937853 C322.66499,90.8758099 317.379381,90.1251271 311.8536,90.0417179 L310.814701,90.0338983 Z"/>
    <circle cx="183" cy="128" r="63" fill="#FFF"/>
    <path fill="#000" fill-rule="nonzero" d="M183.002653,64 C191.315375,64 199.415857,65.5759016 207.084785,68.6834876 C215.029625,71.902501 222.150267,76.635512 228.257465,82.742794 C234.364663,88.850076 239.097608,95.9778914 242.316577,103.915766 C245.42412,111.5848 247,119.688932 247,128.001769 C247,136.312837 245.425889,144.416968 242.316577,152.082465 C239.097608,160.025646 234.3682,167.148155 228.257465,173.255437 C222.150267,179.366257 215.02255,184.09573 207.084785,187.314744 C199.415857,190.42233 191.315375,192 183.002653,192 C174.689931,192 166.58768,190.427636 158.918752,187.314744 C150.97745,184.09573 143.855039,179.366257 137.746072,173.255437 C131.637106,167.148155 126.907698,160.022109 123.68696,152.082465 C120.577649,144.416968 119,136.312837 119,128.001769 C119,119.688932 120.577649,111.5848 123.68696,103.915766 C126.907698,95.9778914 131.635337,88.8518447 137.746072,82.742794 C143.855039,76.635512 150.979218,71.902501 158.918752,68.6834876 C166.58768,65.5759016 174.689931,64 183.002653,64 Z M153.154675,179.988835 C163.142322,185.719386 174.440549,188.340583 185.627351,187.854194 C182.99381,186.980462 180.431015,185.906867 177.938967,184.63518 C177.806907,184.56797 177.678777,184.495257 177.553005,184.419138 L177.36592,184.302667 L153.154675,179.988835 Z M149.587279,141.16435 L138.396941,158.709742 C138.861215,159.725264 139.448313,160.681829 140.01187,161.648017 L140.346009,162.229432 C142.757759,166.513196 145.537738,170.539659 148.615483,174.357713 L149.279532,175.172696 L177.850534,180.264751 C178.2927,179.7536 178.71718,179.238911 179.116898,178.702998 C180.920935,176.288738 182.696121,173.854581 184.452902,171.407987 L186.203935,168.957524 L172.790386,145.764709 L172.405949,145.717959 C172.200289,145.690707 171.973617,145.658234 171.722112,145.623214 C165.060818,144.654225 158.442223,143.436655 151.925805,141.767998 L150.423858,141.374824 C150.110804,141.291695 149.834892,141.226254 149.587279,141.16435 Z M242.735751,132.554373 C242.438615,132.954097 242.054815,133.320216 241.593193,133.647423 C238.315101,135.991062 234.802154,137.913789 231.160562,139.61386 L230.317959,140.002321 L216.005928,166.702446 C217.026447,169.909078 217.749831,173.191765 218.169004,176.541661 C220.696425,174.712837 223.110652,172.661158 225.385154,170.384856 C235.915781,159.855852 241.699313,146.351914 242.735751,132.554373 Z M215.061461,119.881719 L186.509914,122.814205 C185.103826,125.546829 183.695969,128.281222 182.263351,130.997927 C180.856674,133.667468 179.442135,136.336223 178.019212,138.999999 L175.878473,142.991405 L189.674055,166.84571 C196.82362,166.812417 203.916783,166.152433 210.956495,164.911469 L212.393431,164.651651 L212.511047,164.626005 L226.334927,138.838524 C225.807865,137.798535 225.282572,136.772696 224.750204,135.757469 C221.870818,130.249772 218.55811,125.010916 215.061461,119.881719 Z M130.13551,105.712754 C129.753479,106.200912 129.410247,106.715932 129.061793,107.225729 L128.709967,107.732596 C127.16946,109.904546 125.807589,112.172005 124.610203,114.533204 C122.065095,125.642338 122.715964,137.345751 126.557502,148.155976 C129.072543,150.78071 131.913018,153.009258 134.995799,154.944203 C135.152621,155.04325 135.312587,155.136008 135.474125,155.223525 L135.717414,155.351002 L146.918365,137.787923 L146.900678,137.701257 C145.412766,130.501205 144.62648,123.201146 144.579415,115.8477 L144.578422,114.259058 L130.13551,105.712754 Z M194.060342,77.4066602 C189.840309,77.6507393 185.625582,78.13536 181.416161,78.5633826 C181.008926,78.6071577 180.604676,78.6847589 180.202664,78.7805168 L179.801371,78.8817466 L172.058159,102.194832 L176.057109,106.188531 L176.057109,106.188531 L175.966907,106.287578 L175.966907,106.287578 C179.267234,109.994749 182.572868,113.691309 185.857277,117.410861 C186.098995,117.685597 186.332851,117.96898 186.560419,118.257342 L186.897252,118.69316 L214.711266,115.836728 L216.438586,111.579707 C217.297689,109.450064 218.14495,107.316601 218.957828,105.169766 C219.449093,103.864616 219.889646,102.53918 220.316115,101.207833 L221.028934,98.9581318 L201.870763,77.3642117 C199.242528,77.1784994 196.64436,77.2616277 194.060342,77.4066602 Z M163.93999,71.1791074 C155.409722,74.0249275 147.397673,78.8375294 140.618383,85.6151444 C139.893231,86.3403068 139.189302,87.083156 138.510135,87.83308 C137.471929,89.6530607 136.520388,91.5154898 135.685578,93.4433605 C134.601387,95.946055 133.658689,98.514191 132.700073,101.068177 C132.578389,101.390786 132.505379,101.74509 132.470175,102.10211 L132.450692,102.369932 L146.725581,110.815421 C152.240276,107.191378 158.094554,104.168689 164.09917,101.439602 C165.265073,100.908995 166.463803,100.451966 167.654609,99.9770521 L168.598872,99.595523 L168.598872,99.595523 L168.65348,99.5789416 L175.887317,77.794003 C172.190808,75.192262 168.26968,72.999088 163.959445,71.5098521 C163.916997,71.4974713 163.881624,71.4514854 163.80734,71.3966561 C163.849788,71.3206025 163.895773,71.2480862 163.93999,71.1791074 Z M205.67516,72.5126986 C205.652521,73.2541329 205.603847,73.9910394 205.518272,74.7261347 L205.447002,75.277159 L224.3045,96.5314909 C224.957138,96.7561144 225.599163,96.9842753 226.22527,97.2425038 C230.248981,98.894459 234.07637,100.921376 237.656147,103.38516 C234.762612,96.9382893 230.669923,90.9035236 225.385154,85.6151444 C219.573324,79.8050021 212.848862,75.4328036 205.67516,72.5126986 Z"/>
    <path fill="#FFF" fill-rule="nonzero" d="M0,242.806452 L11.7910136,227.193548 L0.351097179,227.193548 L0.351097179,224.532258 L15.3019854,224.532258 L15.3019854,227.193548 L3.56948798,242.806452 L15.477534,242.806452 L15.477534,245.467742 L0,245.467742 L0,242.806452 Z M29.2288401,224.532258 L31.7742947,224.532258 L40.6394984,245.467742 L37.3625914,245.467742 L35.2852665,240.293011 L25.4252874,240.293011 L23.3772205,245.467742 L20.1003135,245.467742 L29.2288401,224.532258 Z M34.261233,237.80914 L30.3991641,228.198925 L30.3406479,228.198925 L26.4200627,237.80914 L34.261233,237.80914 Z M53.4838036,224.532258 L56.0292581,224.532258 L64.8944619,245.467742 L61.6175549,245.467742 L59.5402299,240.293011 L49.6802508,240.293011 L47.6321839,245.467742 L44.3552769,245.467742 L53.4838036,224.532258 Z M58.5161964,237.80914 L54.6541275,228.198925 L54.5956113,228.198925 L50.6750261,237.80914 L58.5161964,237.80914 Z M71.2434692,224.532258 L74.0522466,224.532258 L74.0522466,242.806452 L83.5611285,242.806452 L83.5611285,245.467742 L71.2434692,245.467742 L71.2434692,224.532258 Z M84.5559039,224.532258 L87.8035528,224.532258 L93.8892372,241.564516 L93.9477534,241.564516 L100.267503,224.532258 L103.339603,224.532258 L95.1765935,245.467742 L92.5433647,245.467742 L84.5559039,224.532258 Z M118.992685,246 C117.41274,246 115.959603,245.719089 114.633229,245.157258 C113.306855,244.595427 112.170677,243.82169 111.22466,242.836022 C110.278644,241.850353 109.537446,240.687283 109.001045,239.346774 C108.464644,238.006266 108.196447,236.557355 108.196447,235 C108.196447,233.442645 108.464644,231.993734 109.001045,230.653226 C109.537446,229.312717 110.278644,228.149647 111.22466,227.163978 C112.170677,226.17831 113.306855,225.404573 114.633229,224.842742 C115.959603,224.280911 117.41274,224 118.992685,224 C120.572631,224 122.025768,224.280911 123.352142,224.842742 C124.678516,225.404573 125.814694,226.17831 126.760711,227.163978 C127.706727,228.149647 128.447925,229.312717 128.984326,230.653226 C129.520727,231.993734 129.788924,233.442645 129.788924,235 C129.788924,236.557355 129.520727,238.006266 128.984326,239.346774 C128.447925,240.687283 127.706727,241.850353 126.760711,242.836022 C125.814694,243.82169 124.678516,244.595427 123.352142,245.157258 C122.025768,245.719089 120.572631,246 118.992685,246 Z M118.992685,243.33871 C120.182521,243.33871 121.255307,243.116938 122.211076,242.673387 C123.166846,242.229836 123.986064,241.633516 124.668757,240.884409 C125.351449,240.135301 125.878089,239.253141 126.248694,238.237903 C126.619298,237.222665 126.804598,236.143375 126.804598,235 C126.804598,233.856625 126.619298,232.777335 126.248694,231.762097 C125.878089,230.746859 125.351449,229.864699 124.668757,229.115591 C123.986064,228.366484 123.166846,227.770164 122.211076,227.326613 C121.255307,226.883062 120.182521,226.66129 118.992685,226.66129 C117.80285,226.66129 116.730064,226.883062 115.774295,227.326613 C114.818525,227.770164 113.999307,228.366484 113.316614,229.115591 C112.633922,229.864699 112.107282,230.746859 111.736677,231.762097 C111.366073,232.777335 111.180773,233.856625 111.180773,235 C111.180773,236.143375 111.366073,237.222665 111.736677,238.237903 C112.107282,239.253141 112.633922,240.135301 113.316614,240.884409 C113.999307,241.633516 114.818525,242.229836 115.774295,242.673387 C116.730064,243.116938 117.80285,243.33871 118.992685,243.33871 Z M137.483804,224.532258 L150.854754,224.532258 L150.854754,227.193548 L140.292581,227.193548 L140.292581,233.432796 L150.123302,233.432796 L150.123302,236.094086 L140.292581,236.094086 L140.292581,242.806452 L151.3814,242.806452 L151.3814,245.467742 L137.483804,245.467742 L137.483804,224.532258 Z M163.347962,227.193548 L156.677116,227.193548 L156.677116,224.532258 L172.827586,224.532258 L172.827586,227.193548 L166.15674,227.193548 L166.15674,245.467742 L163.347962,245.467742 L163.347962,227.193548 Z M179.469175,224.532258 L186.666667,224.532258 C187.563919,224.532258 188.397767,224.64068 189.168234,224.857527 C189.938701,225.074374 190.601878,225.394711 191.157785,225.818548 C191.713691,226.242386 192.152558,226.784495 192.474399,227.444892 C192.79624,228.10529 192.957158,228.879028 192.957158,229.766129 C192.957158,230.968644 192.625569,231.949369 191.962382,232.708333 C191.299196,233.467298 190.440961,234.024192 189.38767,234.379032 L189.38767,234.438172 C190.011846,234.477599 190.597002,234.640232 191.143156,234.926075 C191.68931,235.211919 192.162311,235.586467 192.562173,236.049731 C192.962036,236.512995 193.278996,237.050176 193.513062,237.66129 C193.747128,238.272404 193.864159,238.932792 193.864159,239.642473 C193.864159,240.588714 193.673983,241.421591 193.293626,242.141129 C192.913269,242.860667 192.391505,243.466843 191.728318,243.959677 C191.065131,244.452511 190.294675,244.82706 189.416928,245.083333 C188.539181,245.339607 187.593178,245.467742 186.578892,245.467742 L179.469175,245.467742 L179.469175,224.532258 Z M182.277952,233.225806 L186.110763,233.225806 C186.637411,233.225806 187.134794,233.171596 187.602926,233.063172 C188.071058,232.954749 188.480667,232.772403 188.831766,232.516129 C189.182865,232.259855 189.460814,231.93459 189.665622,231.540323 C189.870429,231.146055 189.972832,230.663085 189.972832,230.091398 C189.972832,229.263437 189.709512,228.54391 189.182863,227.932796 C188.656215,227.321682 187.827244,227.016129 186.695925,227.016129 L182.277952,227.016129 L182.277952,233.225806 Z M182.277952,242.983871 L186.403344,242.983871 C186.832465,242.983871 187.305466,242.939517 187.822362,242.850806 C188.339257,242.762096 188.822011,242.584679 189.270637,242.318548 C189.719264,242.052418 190.099615,241.692655 190.411703,241.239247 C190.723791,240.78584 190.879833,240.184592 190.879833,239.435484 C190.879833,238.193542 190.479976,237.2621 189.680251,236.641129 C188.880525,236.020158 187.797987,235.709677 186.432602,235.709677 L182.277952,235.709677 L182.277952,242.983871 Z M208.054336,224.532258 L210.599791,224.532258 L219.464995,245.467742 L216.188088,245.467742 L214.110763,240.293011 L204.250784,240.293011 L202.202717,245.467742 L198.92581,245.467742 L208.054336,224.532258 Z M213.086729,237.80914 L209.22466,228.198925 L209.166144,228.198925 L205.245559,237.80914 L213.086729,237.80914 Z M225.814002,224.532258 L228.62278,224.532258 L228.62278,242.806452 L238.131661,242.806452 L238.131661,245.467742 L225.814002,245.467742 L225.814002,224.532258 Z M259.08046,229.056452 C258.495295,228.287631 257.754097,227.696237 256.856844,227.282258 C255.959591,226.868277 255.033094,226.66129 254.077325,226.66129 C252.906995,226.66129 251.848838,226.883062 250.902821,227.326613 C249.956805,227.770164 249.147339,228.37634 248.474399,229.145161 C247.80146,229.913982 247.279695,230.815855 246.909091,231.850806 C246.538486,232.885758 246.353187,233.994618 246.353187,235.177419 C246.353187,236.281368 246.528734,237.32616 246.879833,238.311828 C247.230932,239.297496 247.738067,240.164871 248.401254,240.913978 C249.064441,241.663086 249.873907,242.254478 250.829676,242.688172 C251.785445,243.121866 252.867984,243.33871 254.077325,243.33871 C255.26716,243.33871 256.310689,243.092296 257.207941,242.599462 C258.105194,242.106628 258.865897,241.416671 259.490073,240.52957 L261.859979,242.333333 L261.721003,242.513525 C261.560084,242.711273 261.333335,242.961692 261.040752,243.264785 C260.650642,243.668909 260.133755,244.073027 259.490073,244.477151 C258.846392,244.881274 258.07106,245.23611 257.164054,245.541667 C256.257049,245.847224 255.208644,246 254.018809,246 C252.380347,246 250.902828,245.684591 249.586207,245.053763 C248.269586,244.422936 247.148037,243.594987 246.221526,242.569892 C245.295015,241.544798 244.587951,240.386655 244.100313,239.09543 C243.612676,237.804205 243.368861,236.498214 243.368861,235.177419 C243.368861,233.560924 243.632181,232.067659 244.15883,230.697581 C244.685478,229.327502 245.4218,228.144718 246.367816,227.149194 C247.313833,226.153669 248.450011,225.379931 249.776385,224.827957 C251.102758,224.275983 252.565649,224 254.165099,224 C255.530484,224 256.871467,224.266126 258.188088,224.798387 C259.504709,225.330648 260.582371,226.14874 261.421108,227.252688 L259.08046,229.056452 Z M278.420063,246 C276.840117,246 275.38698,245.719089 274.060606,245.157258 C272.734232,244.595427 271.598054,243.82169 270.652038,242.836022 C269.706021,241.850353 268.964823,240.687283 268.428422,239.346774 C267.892021,238.006266 267.623824,236.557355 267.623824,235 C267.623824,233.442645 267.892021,231.993734 268.428422,230.653226 C268.964823,229.312717 269.706021,228.149647 270.652038,227.163978 C271.598054,226.17831 272.734232,225.404573 274.060606,224.842742 C275.38698,224.280911 276.840117,224 278.420063,224 C280.000008,224 281.453146,224.280911 282.779519,224.842742 C284.105893,225.404573 285.242071,226.17831 286.188088,227.163978 C287.134104,228.149647 287.875302,229.312717 288.411703,230.653226 C288.948104,231.993734 289.216301,233.442645 289.216301,235 C289.216301,236.557355 288.948104,238.006266 288.411703,239.346774 C287.875302,240.687283 287.134104,241.850353 286.188088,242.836022 C285.242071,243.82169 284.105893,244.595427 282.779519,245.157258 C281.453146,245.719089 280.000008,246 278.420063,246 Z M278.420063,243.33871 C279.609898,243.33871 280.682684,243.116938 281.638454,242.673387 C282.594223,242.229836 283.413441,241.633516 284.096134,240.884409 C284.778826,240.135301 285.305467,239.253141 285.676071,238.237903 C286.046675,237.222665 286.231975,236.143375 286.231975,235 C286.231975,233.856625 286.046675,232.777335 285.676071,231.762097 C285.305467,230.746859 284.778826,229.864699 284.096134,229.115591 C283.413441,228.366484 282.594223,227.770164 281.638454,227.326613 C280.682684,226.883062 279.609898,226.66129 278.420063,226.66129 C277.230227,226.66129 276.157441,226.883062 275.201672,227.326613 C274.245903,227.770164 273.426684,228.366484 272.743992,229.115591 C272.061299,229.864699 271.534659,230.746859 271.164054,231.762097 C270.79345,232.777335 270.60815,233.856625 270.60815,235 C270.60815,236.143375 270.79345,237.222665 271.164054,238.237903 C271.534659,239.253141 272.061299,240.135301 272.743992,240.884409 C273.426684,241.633516 274.245903,242.229836 275.201672,242.673387 C276.157441,243.116938 277.230227,243.33871 278.420063,243.33871 Z M296.706374,224.532258 L300.890282,224.532258 L307.473354,240.38172 L307.590387,240.38172 L314.114943,224.532258 L318.298851,224.532258 L318.298851,245.467742 L315.490073,245.467742 L315.490073,228.258065 L315.431557,228.258065 L308.438871,245.467742 L306.566353,245.467742 L299.573668,228.258065 L299.515152,228.258065 L299.515152,245.467742 L296.706374,245.467742 L296.706374,224.532258 Z M327.07628,224.532258 L334.361546,224.532258 C335.68792,224.532258 336.780212,224.714604 337.638454,225.079301 C338.496695,225.443998 339.174501,225.907255 339.671891,226.469086 C340.169281,227.030917 340.515499,227.661735 340.710554,228.361559 C340.905609,229.061383 341.003135,229.736556 341.003135,230.387097 C341.003135,231.037638 340.905609,231.71281 340.710554,232.412634 C340.515499,233.112459 340.169281,233.743277 339.671891,234.305108 C339.174501,234.866938 338.496695,235.330195 337.638454,235.694892 C336.780212,236.05959 335.68792,236.241935 334.361546,236.241935 L329.885057,236.241935 L329.885057,245.467742 L327.07628,245.467742 L327.07628,224.532258 Z M329.885057,233.758065 L333.571578,233.758065 C334.117732,233.758065 334.659001,233.71371 335.195402,233.625 C335.731803,233.53629 336.209681,233.373657 336.629049,233.137097 C337.048417,232.900536 337.384882,232.560484 337.638454,232.116935 C337.892025,231.673385 338.018809,231.096778 338.018809,230.387097 C338.018809,229.677416 337.892025,229.100809 337.638454,228.657258 C337.384882,228.213707 337.048417,227.873657 336.629049,227.637097 C336.209681,227.400536 335.731803,227.237904 335.195402,227.149194 C334.659001,227.060483 334.117732,227.016129 333.571578,227.016129 L329.885057,227.016129 L329.885057,233.758065 Z M348.083595,224.532258 L361.454545,224.532258 L361.454545,227.193548 L350.892372,227.193548 L350.892372,233.432796 L360.723093,233.432796 L360.723093,236.094086 L350.892372,236.094086 L350.892372,242.806452 L361.981191,242.806452 L361.981191,245.467742 L348.083595,245.467742 L348.083595,224.532258 Z M373.947753,227.193548 L367.276907,227.193548 L367.276907,224.532258 L383.427377,224.532258 L383.427377,227.193548 L376.756531,227.193548 L376.756531,245.467742 L373.947753,245.467742 L373.947753,227.193548 Z M390.068966,224.532258 L392.877743,224.532258 L392.877743,245.467742 L390.068966,245.467742 L390.068966,224.532258 Z M406.190178,227.193548 L399.519331,227.193548 L399.519331,224.532258 L415.669801,224.532258 L415.669801,227.193548 L408.998955,227.193548 L408.998955,245.467742 L406.190178,245.467742 L406.190178,227.193548 Z M422.31139,224.532258 L425.120167,224.532258 L425.120167,245.467742 L422.31139,245.467742 L422.31139,224.532258 Z M434.102403,224.532258 L447.473354,224.532258 L447.473354,227.193548 L436.911181,227.193548 L436.911181,233.432796 L446.741902,233.432796 L446.741902,236.094086 L436.911181,236.094086 L436.911181,242.806452 L448,242.806452 L448,245.467742 L434.102403,245.467742 L434.102403,224.532258 Z"/>
  </g>
</svg>
